# xmcd
#
# Track frame offsets:
#	150
#	17925
#	31520
#	46425
#	61489
#	75690
#	87457
#	101745
#	120517
#	137215
#	153760
#	166162
#	177027
#	189587
#	204037
#	217340
#	229945
#	241455
#	260280
#	274802
#	290867
#	300882
#	317910
#
# Disc length: 4381 seconds
#
# Revision: 1
# Processed by: cddbd v1.4PL0 Copyright (c) Steve Scherf et al.
# Submitted via: audiograbber 1.81.03
#
DISCID=41111b17
DTITLE=Johnny Lee - Portrait
DYEAR=1900
DGENRE=
TTITLE0=Lookin' For Love
TTITLE1=Pickin' Up Strangers
TTITLE2=Rollin' Lonely
TTITLE3=Dreams Die Hard
TTITLE4=You Could've Heard a Heart Break
TTITLE5=Hey Bartender
TTITLE6=Highways Run On Forever
TTITLE7=Cherokee Fiddle
TTITLE8=Prisoner of Hope
TTITLE9=You Can't Fly Like an Eagle
TTITLE10=Sounds Like Love
TTITLE11=Be There For Me Baby
TTITLE12=When You Fall In Love
TTITLE13=Together(The New Wedding Song) (With Roe McCaw)
TTITLE14=One In A Million
TTITLE15=The Anniversary Song
TTITLE16=There Never Was A Doubt
TTITLE17=Lady In Red
TTITLE18=Bet Your Heart On Me
TTITLE19=The Eyes of Love
TTITLE20=Red Sails In the Sunset
TTITLE21=What A Wonderful World
TTITLE22=The Yellow Rose(With Anni O'Brien)
EXTD=
EXTT0=
EXTT1=
EXTT2=
EXTT3=
EXTT4=
EXTT5=
EXTT6=
EXTT7=
EXTT8=
EXTT9=
EXTT10=
EXTT11=
EXTT12=
EXTT13=
EXTT14=
EXTT15=
EXTT16=
EXTT17=
EXTT18=
EXTT19=
EXTT20=
EXTT21=
EXTT22=
PLAYORDER=
